<?xml version="1.0" encoding="UTF-8"?>
<svg id="Layer_2" data-name="Layer 2" xmlns="http://www.w3.org/2000/svg" viewBox="0 0 22.49 21.43">
  <defs>
    <style>
      .cls-1 {
        fill: #bc1a15;
      }
    </style>
  </defs>
  <g id="header">
    <path class="cls-1" d="M16.41,0c.32,0,.66,.02,1.02,.05,2.2,.22,4.75,2.23,5.06,6.1v1.29c-.29,3.7-3.08,8.26-11.25,13.99C3.08,15.7,.29,11.14,0,7.44v-1.29C.31,2.29,2.86,.27,5.06,.05c.36-.04,.7-.05,1.02-.05,2.55,0,3.77,1.1,5.17,2.77,1.4-1.67,2.62-2.77,5.17-2.77m0,2.46c-1.46,0-2.07,.45-3.28,1.89l-1.88,2.25-1.88-2.25c-1.21-1.44-1.82-1.89-3.28-1.89-.24,0-.5,.01-.78,.04-1.02,.1-2.6,1.18-2.84,3.76v1.08c.3,3.23,3.25,6.95,8.79,11.06,5.53-4.11,8.49-7.83,8.79-11.06v-1.08c-.24-2.57-1.82-3.66-2.84-3.76-.28-.03-.54-.04-.78-.04h0Z"/>
  </g>
</svg>